<svg width="173" height="36" viewBox="0 0 173 36" fill="none" xmlns="http://www.w3.org/2000/svg">
<g clip-path="url(#clip0_5_280)">
<path fill-rule="evenodd" clip-rule="evenodd" d="M0 5.38214V30.6179C0 32.3003 1.49424 34.3191 3.15451 35.1603C3.65259 35.4968 4.48273 35.8333 5.14683 35.8333H30.0509C31.047 35.8333 32.3752 34.9921 33.2054 34.3191L33.5374 33.9827C34.3676 33.1415 35.1977 31.6273 35.1977 30.4496V5.55037C35.1977 4.37271 34.5336 3.19504 33.8695 2.35385L32.8733 1.34442C32.2092 0.839701 30.881 0.166748 30.0509 0.166748H5.14683C3.48656 0.166748 1.49424 1.68089 0.664108 3.36328C0.332054 3.86799 0 4.70918 0 5.38214H0ZM9.29751 25.739C9.46353 25.4025 11.1238 22.7107 11.4559 22.206C11.9539 22.3742 12.12 22.7107 13.4482 23.0472C14.2783 23.2154 14.9424 23.3836 15.9386 23.3836C16.1046 23.8883 15.9386 27.4214 15.7726 27.7578H15.6065C15.4405 27.7578 15.2745 27.7578 15.2745 27.7578C13.4482 27.7578 10.6257 27.0849 9.29751 25.739ZM18.595 23.3836C19.2591 23.2154 20.4213 23.5519 22.2476 22.5424C22.5797 22.3742 22.9117 22.0377 23.2438 22.0377C23.5758 22.206 24.2399 23.2154 24.572 23.5519C24.738 23.8883 25.5681 25.066 25.7342 25.4025C24.738 26.2437 22.4136 27.0849 20.7534 27.5896C20.4213 27.5896 19.4251 27.7578 18.9271 27.7578C18.595 27.5896 18.761 26.4119 18.595 25.5707C18.595 24.8978 18.429 23.8883 18.595 23.3836ZM18.595 21.0283C18.595 20.6918 18.429 18.8412 18.595 18.673C18.761 18.1682 19.2591 18.1682 19.2591 16.8223C19.5912 16.9906 21.7495 19.8506 21.7495 20.3553C20.7534 20.6918 20.4213 21.1965 18.595 21.0283ZM12.618 20.0189C12.7841 19.5142 14.2783 17.1588 14.7764 16.3176C14.9424 16.1494 14.9424 15.9811 15.1084 15.9811C15.2745 17.3271 15.4405 17.8318 16.2706 18.673L16.1046 21.0283C15.2745 21.1965 13.1161 20.6918 12.618 20.0189ZM16.6027 9.08338C18.263 8.57866 18.9271 11.1022 17.4328 11.607C15.7726 12.1117 14.9424 9.75633 16.6027 9.08338ZM30.3829 11.607C29.3868 11.607 23.7418 13.6258 22.4136 13.4576C20.2553 13.2893 20.7534 13.4576 19.7572 12.1117C19.2591 11.2705 19.5912 11.607 19.9232 10.7658C20.5873 8.7469 17.7649 6.5598 15.7726 7.56923C13.2822 8.7469 14.2783 11.4387 14.1123 11.607C14.1123 11.7752 13.7802 11.7752 13.4482 11.607C12.9501 11.2705 13.4482 11.4387 12.7841 11.4387L11.7879 10.5975C11.6219 10.7658 10.9578 11.4387 10.7917 11.7752L11.6219 12.6164C11.4559 13.2893 11.2898 12.7846 11.4559 13.6258C11.6219 14.1305 11.7879 14.467 11.7879 14.8035C11.4559 14.9717 10.9578 15.14 10.4597 15.3082C9.79559 15.6447 9.79559 15.4764 9.46353 16.3176C9.29751 17.3271 8.79942 18.1682 8.6334 19.1777C8.46737 19.6824 8.79942 20.1871 8.79942 20.6918C8.96545 21.533 8.79942 21.533 8.46737 22.0377C8.13532 22.7107 7.47121 23.8884 7.13916 24.3931C6.64108 24.3931 6.14299 23.7201 5.64491 23.7201C5.47889 23.8883 4.15067 26.0754 3.98464 26.2437C4.48273 26.9166 7.47121 28.599 8.6334 29.1037C10.2937 29.9449 12.286 30.6179 14.2783 30.7861C17.4328 31.2908 21.4175 31.1226 24.2399 29.9449C25.7342 29.272 25.9002 28.7673 26.5643 28.599L26.8964 28.9355C27.0624 28.9355 30.2169 26.7484 30.5489 26.4119C30.5489 26.0754 30.5489 26.4119 30.3829 26.0754C30.715 25.9072 30.881 25.739 31.047 25.4025C30.715 25.066 29.2207 22.8789 29.0547 22.7107C28.5566 22.8789 28.2246 23.3836 27.7265 23.5519C27.3944 23.3836 25.5681 20.3553 25.2361 19.8506C24.904 19.5142 22.7457 16.3176 22.7457 16.1494C23.0777 15.14 23.2438 15.3082 24.406 14.9717C24.904 14.8035 30.5489 13.2893 30.881 13.1211C30.881 12.6164 30.5489 11.7752 30.3829 11.607Z" fill="white"/>
<path fill-rule="evenodd" clip-rule="evenodd" d="M109.578 35.4968C109.578 35.665 109.744 35.665 109.91 35.665H118.211C118.543 35.665 119.373 34.1509 119.539 33.8144L120.868 31.7956C121.698 30.1132 123.358 27.4214 124.188 26.2437C124.188 25.9072 124.354 25.739 124.52 25.4025L129.169 17.8318C129.335 17.3271 131.493 13.7941 131.659 13.6258V34.4874C131.659 34.9921 131.493 35.665 131.991 35.665H140.293C140.459 35.665 140.459 35.665 140.459 35.4968V0.166748H131.825C131.659 0.166748 131.493 0.503225 131.327 0.671463L130.165 2.85856C129.999 3.0268 129.833 3.19504 129.667 3.53151C129.501 3.69975 129.501 3.86799 129.335 4.20447L118.377 22.0377V0.166748H109.578V35.4968Z" fill="white"/>
<path fill-rule="evenodd" clip-rule="evenodd" d="M173 0.166748H164.367V13.2893H152.745V0.166748H143.945C143.945 1.84913 143.779 35.4968 143.945 35.665C144.111 35.8333 145.274 35.665 145.606 35.665L152.081 35.8333C152.579 35.8333 152.745 35.8333 152.745 35.4968V20.3553H164.367V35.665C165.197 35.8333 171.672 35.665 173 35.665V0.166748Z" fill="white"/>
<path fill-rule="evenodd" clip-rule="evenodd" d="M43.8311 35.4968C43.8311 35.665 43.8311 35.665 43.9971 35.665H52.2985C52.6305 35.665 52.4645 34.9921 52.4645 34.1509L52.6305 7.90571C52.6305 7.401 52.4645 7.06452 52.7966 7.06452H64.0864C64.4184 7.06452 64.2524 7.90571 64.2524 8.7469V34.1509C64.2524 34.4874 64.2524 34.8238 64.2524 34.9921C64.2524 35.3286 64.2524 35.665 64.5845 35.665H72.7198C73.0518 35.665 73.0518 35.665 73.0518 35.4968V0.166748H43.8311V35.4968Z" fill="white"/>
<path fill-rule="evenodd" clip-rule="evenodd" d="M92.3109 16.4859H85.1718V7.401C85.1718 7.23276 85.3378 7.23276 85.5038 7.23276H90.9827C93.1411 7.23276 95.9635 7.56923 96.6276 9.58809C96.9597 10.4293 96.9597 10.261 96.9597 11.2705C97.2917 13.9623 96.1295 15.8129 93.3071 16.3176C93.1411 16.3176 93.1411 16.3176 92.809 16.3176C92.643 16.4859 92.643 16.4859 92.3109 16.4859ZM76.3723 0.334986V35.4968C76.3723 35.665 76.5384 35.665 76.7044 35.665H85.0057C85.1718 35.665 85.1718 35.665 85.1718 35.4968V23.5519C87.8282 23.5519 93.1411 23.7201 95.4654 23.3836C95.7975 23.3836 95.9635 23.3836 96.2956 23.3836C97.2917 23.2154 98.4539 23.0472 99.2841 22.7107L100.446 22.206C101.774 21.533 102.439 20.6918 103.435 19.8506C105.095 18.3365 105.925 15.9812 106.091 13.7941C106.091 13.2893 106.257 12.9529 106.257 12.2799C106.257 11.1022 106.257 9.75633 105.925 8.57866C105.593 6.22333 104.763 4.54094 102.937 3.0268C102.771 2.85856 102.439 2.69032 102.273 2.52208L101.11 1.84913C101.11 1.84913 100.944 1.84913 100.944 1.68089C100.114 1.34442 99.2841 1.00794 98.4539 0.839701C98.2879 0.671463 98.1219 0.671463 97.7898 0.671463L96.6276 0.334986C96.4616 0.334986 96.2956 0.334986 96.1295 0.334986C95.6315 0.166748 95.2994 0.166748 94.8013 0.166748H76.5384C76.3723 0.166748 76.3723 0.166748 76.3723 0.334986Z" fill="white"/>
<path fill-rule="evenodd" clip-rule="evenodd" d="M18.595 23.3837C18.429 23.8885 18.595 24.8979 18.595 25.5708C18.761 26.412 18.595 27.5897 18.9271 27.7579C19.4251 27.7579 20.4213 27.5897 20.7533 27.5897C22.4136 27.085 24.738 26.2438 25.7342 25.4026C25.5681 25.0661 24.738 23.8885 24.572 23.552C24.2399 23.2155 23.5758 22.2061 23.2438 22.0378C22.9117 22.0378 22.5796 22.3743 22.2476 22.5426C20.4213 23.552 19.2591 23.2155 18.595 23.3837Z" fill="white"/>
<path fill-rule="evenodd" clip-rule="evenodd" d="M9.29752 25.7391C10.6257 27.085 13.4482 27.7579 15.2745 27.7579C15.2745 27.7579 15.4405 27.7579 15.6065 27.7579H15.7726C15.9386 27.4214 16.1046 23.8884 15.9386 23.3837C14.9424 23.3837 14.2783 23.2155 13.4482 23.0472C12.12 22.7108 11.9539 22.3743 11.4559 22.2061C11.1238 22.7108 9.46354 25.4026 9.29752 25.7391Z" fill="white"/>
<path fill-rule="evenodd" clip-rule="evenodd" d="M12.618 20.0189C13.1161 20.6919 15.2745 21.1966 16.1046 21.0284L16.2706 18.673C15.4405 17.8318 15.2745 17.3271 15.1084 15.9812C14.9424 15.9812 14.9424 16.1494 14.7764 16.3177C14.2783 17.1589 12.7841 19.5142 12.618 20.0189Z" fill="white"/>
<path fill-rule="evenodd" clip-rule="evenodd" d="M18.595 21.0282C20.4213 21.1965 20.7533 20.6917 21.7495 20.3553C21.7495 19.8506 19.5912 16.9905 19.2591 16.8223C19.2591 18.1682 18.761 18.1682 18.595 18.6729C18.429 18.8411 18.595 20.6917 18.595 21.0282Z" fill="white"/>
<path fill-rule="evenodd" clip-rule="evenodd" d="M16.6027 9.08345C14.9424 9.75641 15.7725 12.1117 17.4328 11.607C18.9271 11.1023 18.2629 8.57874 16.6027 9.08345Z" fill="white"/>
</g>
<defs>
<clipPath id="clip0_5_280">
<rect width="173" height="36" fill="white"/>
</clipPath>
</defs>
</svg>
