<svg width="43" height="36" viewBox="0 0 43 36" fill="none" xmlns="http://www.w3.org/2000/svg">
<path fill-rule="evenodd" clip-rule="evenodd" d="M16.1545 33.7624C18.4841 33.5719 20.3435 29.9037 22.9749 28.2389C23.6092 28.6294 24.2376 29.2024 24.8866 29.6784L30.9288 34.137C32.068 34.9607 34.3105 36.9647 35.6365 35.4488C36.3631 34.6177 36.9013 31.3494 37.1963 29.9068C38.7703 22.201 40.416 14.398 42.1188 6.71906C42.4354 5.29281 43.4105 2.01344 42.6353 0.810913C41.551 -0.87336 39.1892 0.499068 37.7007 1.06524L2.24919 14.7273C0.465192 15.4037 -1.34466 16.9176 1.43238 17.9259L9.42899 20.4296C10.7344 20.8328 11.0014 21.2238 12.0762 20.5399C19.1489 16.0406 26.6363 11.5392 33.5808 6.98658C34.0768 6.66102 37.1335 5.56614 34.3211 7.88518C33.1914 8.81702 31.3256 10.7688 29.7068 12.0721L21.4147 19.5347C21.0574 19.8434 20.8443 20.1373 20.4791 20.446C20.1393 20.7325 19.8649 20.9087 19.542 21.2137C16.2062 24.367 16.9037 22.9249 16.6119 27.1155C16.4584 29.3222 16.2795 31.5489 16.1545 33.7624Z" fill="#FCFEFE"/>
</svg>
